<svg xmlns="http://www.w3.org/2000/svg" version="1.1" xmlns:xlink="http://www.w3.org/1999/xlink" xmlns:svgjs="http://svgjs.dev/svgjs" width="1440" height="560" preserveAspectRatio="none" viewBox="0 0 1440 560"><g mask="url(&quot;#SvgjsMask1130&quot;)" fill="none"><rect width="1440" height="560" x="0" y="0" fill="rgba(255, 199, 199, 1)"></rect><path d="M 0,9 C 144,73 432,277.6 720,329 C 1008,380.4 1296,278.6 1440,266L1440 560L0 560z" fill="rgba(255, 128, 176, 1)"></path><path d="M 0,552 C 72,466.2 216,145.4 360,123 C 504,100.6 576,458 720,440 C 864,422 936,56.6 1080,33 C 1224,9.4 1368,264.2 1440,322L1440 560L0 560z" fill="rgba(147, 153, 255, 1)"></path><path d="M 0,231 C 96,277.6 288,464.8 480,464 C 672,463.2 768,219.4 960,227 C 1152,234.6 1344,447 1440,502L1440 560L0 560z" fill="rgba(169, 255, 253, 1)"></path></g><defs><mask id="SvgjsMask1130"><rect width="1440" height="560" fill="#ffffff"></rect></mask></defs></svg>